<?xml version="1.0" encoding="UTF-8"?>
<svg xmlns="http://www.w3.org/2000/svg" viewBox="0 0 573.87 67.92">
    <defs>
        <style>.d{fill:#fff;}</style>
    </defs>
    <g id="a" />
    <g id="b">
        <g id="c">
            <g>
                <path class="d" d="M218.6,7.46v25.14L242.3,2.56c1.26-1.6,3.09-2.52,5.01-2.52h13.41l-26.14,33.13,26.41,34.64h-14.37c-1.99,0-3.88-.99-5.15-2.71l-22.87-30.99v33.69h-7.04c-3.68,0-6.66-3.32-6.66-7.42V.04h7.04c3.68,0,6.66,3.32,6.66,7.42h0Z" />
                <g>
                    <path class="d" d="M143.72,11.86h23.82s5.4-.17,8.41,1.26c2.41,1.14,3.77,3.56,3.77,7.59,.05,3.19-.76,5.32-2.35,6.51,1.39,1.2,2.88,2.82,4.35,5.02,.7,1.05,1.68,2.72,2.98,5.11,.08,.15,.2,.27,.29,.41,2.27-1.25,4.13-2.89,5.47-5.02,2.15-3.43,3.19-7.5,3.13-12.22,0-.44-.42-6.62-1.59-9.44-.91-2.2-2.04-4.12-3.68-5.76-1.82-1.89-3.92-3.18-6.31-3.87-3.79-1.21-7.76-1.42-11.21-1.42h-33.77V4.77c0,4.1,3,7.1,6.68,7.1h0Z" />
                    <path class="d" d="M177.72,35.39c-3.38-5.11-6.76-6.23-8.85-6.37-2.2-.15-18.13,.02-18.13,.02v-4.61c0-4.1-2.98-7.42-6.66-7.42h-7.04V60.39c0,4.1,2.98,7.42,6.66,7.42h7.04v-26.9h16.16l13.37,25.1c.6,1.12,1.68,1.8,2.86,1.8h13.55l-15.97-27.38c-.08-.13-2.38-4.14-2.99-5.04Z" />
                </g>
                <path class="d" d="M522.7,17.16c1.47-4.43,3.99-8.2,7.62-11.28,3.03-2.52,6.25-4.12,9.67-4.81,3.42-.69,6.98-1.04,10.67-1.04h16.48c3.68,0,6.66,3.32,6.66,7.42v4.43h-22.51s-4.75-.02-7.24,.23c0,0-7.41,.6-12.83,3.56s-7.91,5.25-10.75,9.27c0,0,1.36-5.17,2.22-7.78Z" />
                <path class="d" d="M493.36,67.81c-9.86,0-17.27-2.65-22.2-7.68-3.89-3.98-6.44-9.75-7.67-17.25,.12,.17,.32,.56,.44,.73,4.4,6.32,12.74,11.31,25.08,12.21,1.83,.16,8.91,.18,10.38,.2h10.07c3.68,0,6.66,3.32,6.66,7.42l.02,4.36-22.78,.02Z" />
                <g>
                    <path class="d" d="M89.56,29.58l-11.91,33.6c-1.02,2.8-3.46,4.63-6.17,4.63h-9.11L87.22,.07s4.37,0,16.41,0c-1.99,1.88-4.72,4.52-9.89,17.76-1.18,3.3-2.13,5.79-4.18,11.75Z" />
                    <path class="d" d="M127.05,57.31L105.66,5.1c-2.16,3.05-5.51,9.6-7.45,15.24l7.29,19.16h-9.6c-2.95,0-5.55,2.16-6.39,5.3l-2.34,6.85h22.89l6.05,16.15h4.87c4.85,0,8.08-5.58,6.06-10.5h0Z" />
                </g>
                <g>
                    <path class="d" d="M285.22,17.15v50.66h7.5c3.68,0,6.66-3.32,6.66-7.42V17.04h-14.16v.1Z" />
                    <path class="d" d="M270.91,.14c-3.68,0-6.66,3.32-6.66,7.42v4.32h49.61c3.68,0,6.66-3.27,6.66-7.36V.14h-49.61Z" />
                </g>
                <path class="d" d="M13.63,11.88s15.26-.02,15.94,0,3.39,.2,4.83,.36c17.39,1.98,23.26,9.79,25.78,13.56-1.18-7.91-3.99-13.96-8.01-18.08C47.24,2.69,39.79,.14,29.84,.07H0V11.87H13.63Z" />
                <g>
                    <path class="d" d="M421.18,29.58l-11.91,33.6c-1.02,2.8-3.46,4.63-6.17,4.63h-9.11L418.84,.07s4.37,0,16.41,0c-1.99,1.88-4.72,4.52-9.89,17.76-1.18,3.3-2.3,6.11-4.18,11.75Z" />
                    <path class="d" d="M458.67,57.31l-21.39-52.21c-2.16,3.05-5.51,9.6-7.45,15.24l7.29,19.16h-9.43c-2.95,0-5.55,2.16-6.39,5.3l-1.83,6.85h22.21l6.05,16.15h4.87c4.85,0,8.08-5.58,6.06-10.5h0Z" />
                </g>
                <g>
                    <path class="d" d="M335.15,11.83h23.82s5.4-.17,8.41,1.26c2.41,1.14,3.77,3.56,3.77,7.59,.05,3.19-.76,5.32-2.35,6.51,1.39,1.2,2.88,2.82,4.35,5.02,.7,1.05,1.68,2.72,2.98,5.11,.08,.15,.2,.27,.29,.41,2.27-1.25,4.13-2.89,5.47-5.02,2.15-3.43,3.19-7.5,3.13-12.22,0-.44-.42-6.62-1.59-9.44-.91-2.2-2.04-4.12-3.68-5.76-1.82-1.89-3.92-3.18-6.31-3.87-3.79-1.21-7.76-1.42-11.21-1.42h-33.77V4.73c0,4.1,3,7.1,6.68,7.1h0Z" />
                    <path class="d" d="M369.14,35.36c-3.38-5.11-6.76-6.23-8.85-6.37-2.2-.15-18.13,.02-18.13,.02v-4.61c0-4.1-2.98-7.42-6.66-7.42h-7.04V60.35c0,4.1,2.98,7.42,6.66,7.42h7.04v-26.87h16.16l13.37,25.07c.6,1.12,1.68,1.8,2.86,1.8h13.55l-15.97-27.38c-.08-.13-2.38-4.14-2.99-5.04Z" />
                </g>
                <path class="d" d="M53.17,25.64c.9,.96,1.93,2.24,2.67,3.33,2.71,4.01,4.21,8.34,4.21,13.54,0,13.88-11.35,25.21-25.23,25.21l-4.59,.08H6.67C2.99,67.81,0,64.48,0,60.39V17.01H13.72V56.01h15.89c3.38-.06,4.76-.11,6.67-.52,1.91-.41,3.58-1.47,5.04-3.17,1.46-1.76,2.47-3.74,3.04-5.95s.87-4.26,1.14-6.7c.32-2.99,.09-8.64,.09-8.64,0-1.04-.36-6.32-1.22-9.58-.19-.68-.43-1.32-.7-1.95,3.49,1.2,6.71,3.26,9.38,5.98l.13,.15Z" />
                <path class="d" d="M488.87,12.18l.99-.15c1.08-.13,2.09-.16,2.95-.16l23.34-.07V7.43c0-4.1-2.98-7.42-6.66-7.42h-16.48c-3.26,0-6.42,.27-9.47,.81l-.15,.02c-11.8,2-20.76,12.16-20.76,24.39,0,5.15,1.59,9.93,4.31,13.89,4.5,6.55,9.35,8.61,14.09,10.14h.04l-.03-.04c-1.7-3.32-2.9-7.28-3.43-11.67-1.56-12.87,3.48-24.23,11.26-25.36" />
                <path class="d" d="M573.87,36.62c0-4.1-2.98-7.42-6.66-7.42l-32.42-.02c.59-3.93,1.72-7.5,3.27-10.53,0-.01,.02-.03,.03-.04h0v-.02h-.03c-.14,.06-.28,.11-.42,.15-.88,.25-1.85,.6-2.9,1.06-3.66,1.53-7.32,3.91-10.77,8.93-2.72,3.96-4.31,8.74-4.31,13.89,0,10.16,6.2,18.88,15.06,22.69,1.51,.72,3.06,1.25,4.66,1.57,3.42,.69,6.98,1.04,10.67,1.04h16.48c3.47,0,6.32-2.96,6.63-6.73,.02-.25,.04-.51,.04-.76v-4.38l-23.34-.07c-.87,0-1.87-.02-2.95-.16l-.99-.15h0c-5.5-.81-9.63-6.73-11.03-14.67h39.01v-4.38Z" />
            </g>
        </g>
    </g>
</svg>
