<svg xmlns="http://www.w3.org/2000/svg" xmlns:xlink="http://www.w3.org/1999/xlink" width="94.36" height="106.22" viewBox="0 0 94.36 106.22"><defs><style>.cls-1{fill:url(#linear-gradient);}.cls-2{fill:#fff;}</style><linearGradient id="linear-gradient" x1="70" y1="-213.04" x2="9.62" y2="-213.67" gradientTransform="matrix(1, 0, 0, -1, 0, -193.11)" gradientUnits="userSpaceOnUse"><stop offset="0" stop-color="#f1562c"/><stop offset="1" stop-color="#f68b27"/></linearGradient></defs><g id="Layer_2" data-name="Layer 2"><g id="Layer_1-2" data-name="Layer 1"><path class="cls-1" d="M21.37,18.51s23.93,0,25,0,5.31.32,7.57.56c27.27,3.1,36.48,15.35,40.42,21.26C92.51,27.93,88.11,18.44,81.8,12Q70.22.16,46.79,0H0V18.5Z"/><path class="cls-2" d="M83.38,40.09a45.84,45.84,0,0,1,4.18,5.23,36.6,36.6,0,0,1,6.6,21.24A39.64,39.64,0,0,1,54.6,106.09l-7.19.13H10.47C4.7,106.22,0,101,0,94.58v-68h21.5V87.73H46.44c5.31-.1,7.47-.17,10.46-.81a14.32,14.32,0,0,0,7.9-5,23.84,23.84,0,0,0,4.77-9.32,69.58,69.58,0,0,0,1.78-10.51,124.69,124.69,0,0,0,.15-13.55,81.66,81.66,0,0,0-1.92-15,23.62,23.62,0,0,0-1.1-3.06,37.94,37.94,0,0,1,14.7,9.37Z"/></g></g></svg>
