<svg id="ade21f7f-ab08-4e7d-a7d2-90d0e26a2e9c" data-name="acb5f92f-a391-4124-a8f9-afc2aec45cd4" xmlns="http://www.w3.org/2000/svg" xmlns:xlink="http://www.w3.org/1999/xlink" width="100%" height="100%" viewBox="0 0 94.35 106.21"><defs><linearGradient id="ac6a4af0-352c-4705-be30-9500bc54f903" x1="69.71" y1="754.8" x2="9.33" y2="755.43" gradientTransform="translate(0 -734.89)" gradientUnits="userSpaceOnUse"><stop offset="0" stop-color="#e74d23"/><stop offset="1" stop-color="#f08a14"/></linearGradient></defs><path d="M21.08,18.47h25c1.07,0,5.31.32,7.57.56,27.27,3.11,36.47,15.35,40.42,21.26C92.22,27.89,87.82,18.41,81.51,12Q69.93.13,46.5,0H-.28V18.5Z" fill="url(#ac6a4af0-352c-4705-be30-9500bc54f903)"/><path d="M83.1,40.05a46.62,46.62,0,0,1,4.18,5.22,36.57,36.57,0,0,1,6.6,21.24A39.64,39.64,0,0,1,54.32,106l-7.19.13H10.18C4.41,106.17-.27,101-.27,94.54v-68h21.5V87.68H46.15c5.3-.1,7.46-.17,10.45-.81a14.36,14.36,0,0,0,7.9-5,23.94,23.94,0,0,0,4.77-9.33A68.44,68.44,0,0,0,71.05,62a122.34,122.34,0,0,0,.15-13.54,81.47,81.47,0,0,0-1.92-15,21.86,21.86,0,0,0-1.1-3.06,38,38,0,0,1,14.71,9.4Z" fill="#fff"/></svg>